<svg width="48" height="45" viewBox="0 0 48 45" fill="none" xmlns="http://www.w3.org/2000/svg">
<path d="M2.64536 44.6965C1.6676 44.291 0.885497 43.5089 0.480036 42.5312L0.941899 42.3396C0.771056 41.9276 0.676514 41.4755 0.676514 41V38.6875H0.176514V34.0625H0.676514V29.4375H0.176514V24.8125H0.676514V20.1875H0.176514V15.5625H0.676514V10.9375H0.176514V6.3125H0.676514V4C0.676514 3.52451 0.771056 3.07236 0.941899 2.66038L0.480036 2.46885C0.885497 1.49109 1.6676 0.708984 2.64536 0.303522L2.83689 0.765385C3.24887 0.594542 3.70102 0.5 4.17651 0.5H6.06849V0H9.85245V0.5H13.6364V0H17.4204V0.5H19.1861L20.4722 1.81463L20.8296 1.46499L23.5782 4.27468L23.2208 4.62433L24.5951 6.02918C25.4417 6.89457 26.6012 7.38235 27.8119 7.38235H29.8133V6.88235H33.8163V7.38235H37.8192V6.88235H41.8221V7.38235H43.8236C44.2991 7.38235 44.7512 7.47689 45.1632 7.64774L45.3547 7.18587C46.3325 7.59134 47.1146 8.37344 47.5201 9.3512L47.0582 9.54273C47.229 9.95471 47.3236 10.4069 47.3236 10.8824V13.3922H47.8236V18.4118H47.3236V23.4314H47.8236V28.451H47.3236V33.4706H47.8236V38.4902H47.3236V41C47.3236 41.4755 47.229 41.9276 47.0582 42.3396L47.5201 42.5312C47.1146 43.5089 46.3325 44.291 45.3547 44.6965L45.1632 44.2346C44.7512 44.4055 44.2991 44.5 43.8236 44.5H41.3456V45H36.3898V44.5H31.4339V45H26.478V44.5H21.5221V45H16.5662V44.5H11.6103V45H6.65445V44.5H4.17651C3.70102 44.5 3.24887 44.4055 2.83689 44.2346L2.64536 44.6965Z" stroke="#999DA8" stroke-dasharray="5 5"/>
</svg>
